<svg width="16" height="17" viewBox="0 0 16 17" fill="none" xmlns="http://www.w3.org/2000/svg">
  <g opacity="0.2">
    <path d="M5.32228 14.8151C4.89257 15.2552 4.89257 15.9533 5.32228 16.3933C5.78181 16.8639 6.54684 16.8546 6.98207 16.3806L13.6777 9.52389C13.8872 9.30936 14 9.02061 14 8.7348C14 8.43934 13.8889 8.16195 13.6777 7.94572L6.98207 1.08902C6.52922 0.625275 5.77513 0.625275 5.32228 1.08902C4.89258 1.52906 4.89258 2.22714 5.32228 2.66718L11.2594 8.74711L5.32228 14.8151Z" fill="white"></path>
    <path d="M5.32228 14.8151C4.89257 15.2552 4.89257 15.9533 5.32228 16.3933C5.78181 16.8639 6.54684 16.8546 6.98207 16.3806L13.6777 9.52389C13.8872 9.30936 14 9.02061 14 8.7348C14 8.43934 13.8889 8.16195 13.6777 7.94572L6.98207 1.08902C6.52922 0.625275 5.77513 0.625275 5.32228 1.08902C4.89258 1.52906 4.89258 2.22714 5.32228 2.66718L11.2594 8.74711L5.32228 14.8151Z" fill="white"></path>
  </g>
</svg>