<svg width="25" height="24" viewBox="0 0 25 24" fill="none" xmlns="http://www.w3.org/2000/svg">
  <circle opacity="0.3" cx="12.5" cy="12" r="12" fill="white"></circle>
    <path d="M17.297 12.5497L16.904 12.1565C16.7805 12.0329 16.6156 11.9645 16.44 11.9645C16.2642 11.9645 16.0843 12.0329 15.9608 12.1565L13.4195 14.6827V6.65668C13.4195 6.29473 13.1553 6 12.7934 6H12.2372C11.8755 6 11.5445 6.29473 11.5445 6.65668V14.7113L9.00816 12.1565C8.88455 12.0329 8.72904 11.9645 8.55323 11.9645C8.37762 11.9645 8.21723 12.0329 8.09372 12.1565L7.70279 12.5497C7.44699 12.8056 7.44806 13.2219 7.70387 13.4778L12.035 17.8084C12.1583 17.9317 12.3238 18 12.5008 18H12.5027C12.6784 18 12.8435 17.9317 12.9668 17.8084L17.297 13.4779C17.553 13.222 17.553 12.8056 17.297 12.5497Z" fill="white"></path>
</svg>