<svg width="16" height="17" viewBox="0 0 16 17" fill="none" xmlns="http://www.w3.org/2000/svg">
  <g opacity="0.2">
    <path d="M10.6777 2.66728C11.1074 2.22724 11.1074 1.52915 10.6777 1.08911C10.2182 0.618525 9.45316 0.627851 9.01793 1.10183L2.32228 7.95854C2.11279 8.17307 2 8.46181 2 8.74762C2 9.04308 2.11113 9.32047 2.32228 9.5367L9.01793 16.3934C9.47078 16.8571 10.2249 16.8571 10.6777 16.3934C11.1074 15.9534 11.1074 15.2553 10.6777 14.8152L4.7406 8.73531L10.6777 2.66728Z" fill="white"></path>
    <path d="M10.6777 2.66728C11.1074 2.22724 11.1074 1.52915 10.6777 1.08911C10.2182 0.618525 9.45316 0.627851 9.01793 1.10183L2.32228 7.95854C2.11279 8.17307 2 8.46181 2 8.74762C2 9.04308 2.11113 9.32047 2.32228 9.5367L9.01793 16.3934C9.47078 16.8571 10.2249 16.8571 10.6777 16.3934C11.1074 15.9534 11.1074 15.2553 10.6777 14.8152L4.7406 8.73531L10.6777 2.66728Z" fill="white"></path>
  </g>
</svg>