<svg width="24" height="24" viewBox="0 0 24 24" fill="none" xmlns="http://www.w3.org/2000/svg">
  <circle opacity="0.3" cx="12" cy="12" r="12" transform="rotate(-180 12 12)" fill="white"></circle>
    <path d="M7.20296 11.4503L7.59604 11.8435C7.71945 11.9671 7.88443 12.0355 8.06004 12.0355C8.23584 12.0355 8.41574 11.9671 8.53916 11.8435L11.0805 9.31727L11.0805 17.3433C11.0805 17.7053 11.3447 18 11.7066 18L12.2628 18C12.6245 18 12.9555 17.7053 12.9555 17.3433L12.9555 9.28868L15.4918 11.8435C15.6155 11.9671 15.771 12.0355 15.9468 12.0355C16.1224 12.0355 16.2828 11.9671 16.4063 11.8435L16.7972 11.4503C17.053 11.1944 17.0519 10.7781 16.7961 10.5222L12.465 6.19161C12.3417 6.06829 12.1762 6 11.9992 6L11.9973 6C11.8216 6 11.6565 6.06829 11.5332 6.19161L7.20296 10.5221C6.94696 10.778 6.94696 11.1944 7.20296 11.4503Z" fill="white"></path>
</svg>